# File created by Blade
# Date/Time:  Tue Sep 30 19:36:22 2014
#---------------------------------------------------------
:version 1.10
:name HOM
:units
  mass 1.0
  length 1.000000
  angle deg
:documentation
     Acclaim Skeleton File
:root
   axis xyz
   order TX TY TZ RX RY RZ
   position 0.000000 0.000000 0.000000
   orientation 0 0 0
:bonedata
   begin
      id 1
      name Spine_dum
      direction 0.000000 1.000000 0.000000
      length 3.241213
      axis 0.0 0.0 0.0 xyz
   end
   begin
      id 2
      name LeftUpLeg_dum
      direction 1.000000 0.000000 0.000000
      length 3.434019
      axis 0.0 0.0 0.0 xyz
   end
   begin
      id 3
      name RightUpLeg_dum
      direction -1.000000 0.000000 0.000000
      length 3.434019
      axis 0.0 0.0 0.0 xyz
   end
   begin
      id 4
      name Spine
      direction 0.000000 1.000000 0.000000
      length 0.000000
      axis 0.0 0.0 0.0 xyz
      dof rx ry rz
   end
   begin
      id 5
      name Spine_dum1
      direction 0.000000 1.000000 0.000000
      length 18.382958
      axis 0.0 0.0 0.0 xyz
   end
   begin
      id 6
      name Spine_dum2
      direction 0.000000 1.000000 0.000000
      length 12.828261
      axis 0.0 0.0 0.0 xyz
   end
   begin
      id 7
      name Spine_dum3
      direction 0.000000 1.000000 0.000000
      length 12.828261
      axis 0.0 0.0 0.0 xyz
   end
   begin
      id 8
      name Head
      direction 0.000000 1.000000 0.000000
      length 4.527550
      axis 0.0 0.0 0.0 xyz
      dof rx ry rz
   end
   begin
      id 9
      name LeftShoulder
      direction 1.000000 0.000000 0.000000
      length 7.748055
      axis 0.0 0.0 -90.0 xyz
      dof rx ry rz
   end
   begin
      id 10
      name LeftArm
      direction 1.000000 0.000000 0.000000
      length 10.635614
      axis 0.0 0.0 -90.0 xyz
      dof rx ry rz
   end
   begin
      id 11
      name LeftForeArm
      direction 1.000000 0.000000 0.000000
      length 8.346755
      axis 0.0 0.0 -90.0 xyz
      dof ry rz rx
   end
   begin
      id 12
      name LeftHand
      direction 0.000000 0.000000 0.000000
      length 0.000000
      axis 0.0 0.0 -90.0 xyz
      dof rx ry rz
   end
   begin
      id 13
      name LeftHand_dum1
      direction 0.000000 0.000000 0.000000
      length 0.000000
      axis 0.0 0.0 -90.0 xyz
   end
   begin
      id 14
      name LeftHand_dum2
      direction 1.000000 0.000000 0.000000
      length 3.937000
      axis 0.0 0.0 -90.0 xyz
   end
   begin
      id 15
      name LeftHandThumb1
      direction 0.000000 0.000000 1.000000
      length 3.937000
      axis 0.0 0.0 -90.0 xyz
      dof rx rz ry
   end
   begin
      id 16
      name RightShoulder
      direction -1.000000 0.000000 0.000000
      length 7.748055
      axis 0.0 0.0 90.0 xyz
      dof rx ry rz
   end
   begin
      id 17
      name RightArm
      direction -1.000000 0.000000 0.000000
      length 10.635614
      axis 0.0 0.0 90.0 xyz
      dof rx ry rz
   end
   begin
      id 18
      name RightForeArm
      direction -1.000000 0.000000 0.000000
      length 8.346755
      axis 0.0 0.0 90.0 xyz
      dof ry rz rx
   end
   begin
      id 19
      name RightHand
      direction 0.000000 0.000000 0.000000
      length 0.000000
      axis 0.0 0.0 90.0 xyz
      dof rx ry rz
   end
   begin
      id 20
      name RightHand_dum1
      direction 0.000000 0.000000 0.000000
      length 0.000000
      axis 0.0 0.0 90.0 xyz
   end
   begin
      id 21
      name RightHand_dum2
      direction -1.000000 0.000000 0.000000
      length 3.937000
      axis 0.0 0.0 90.0 xyz
   end
   begin
      id 22
      name RightHandThumb1
      direction 0.000000 0.000000 1.000000
      length 3.937000
      axis 0.0 0.0 90.0 xyz
      dof rx rz ry
   end
   begin
      id 23
      name LeftUpLeg
      direction 0.000000 -1.000000 0.000000
      length 15.713025
      axis 0.0 0.0 0.0 xyz
      dof rx ry rz
   end
   begin
      id 24
      name LeftLeg
      direction 0.000000 -1.000000 0.000000
      length 14.435119
      axis 0.0 0.0 0.0 xyz
      dof rx ry rz
   end
   begin
      id 25
      name LeftFoot
      direction 0.000000 -0.258819 0.965926
      length 4.938895
      axis 15.0 0.0 0.0 xyz
      dof rx ry rz
   end
   begin
      id 26
      name LeftToeBase
      direction 0.000000 0.000000 1.000000
      length 2.952750
      axis 0.0 0.0 0.0 xyz
      dof rx ry rz
   end
   begin
      id 27
      name RightUpLeg
      direction 0.000000 -1.000000 0.000000
      length 15.713025
      axis 0.0 0.0 0.0 xyz
      dof rx ry rz
   end
   begin
      id 28
      name RightLeg
      direction 0.000000 -1.000000 0.000000
      length 14.435119
      axis 0.0 0.0 0.0 xyz
      dof rx ry rz
   end
   begin
      id 29
      name RightFoot
      direction 0.000000 -0.258819 0.965926
      length 4.938895
      axis 15.0 0.0 0.0 xyz
      dof rx ry rz
   end
   begin
      id 30
      name RightToeBase
      direction 0.000000 0.000000 1.000000
      length 2.952750
      axis 0.0 0.0 0.0 xyz
      dof rx ry rz
   end
:hierarchy
   begin
      root Spine_dum LeftUpLeg_dum RightUpLeg_dum
      Spine_dum Spine
      LeftUpLeg_dum LeftUpLeg
      RightUpLeg_dum RightUpLeg
      Spine Spine_dum1 Spine_dum2 Spine_dum3
      Spine_dum1 Head
      Spine_dum2 LeftShoulder
      Spine_dum3 RightShoulder
      LeftShoulder LeftArm
      LeftArm LeftForeArm
      LeftForeArm LeftHand
      LeftHand LeftHand_dum1 LeftHand_dum2
      LeftHand_dum1 LeftHandThumb1
      RightShoulder RightArm
      RightArm RightForeArm
      RightForeArm RightHand
      RightHand RightHand_dum1 RightHand_dum2
      RightHand_dum1 RightHandThumb1
      LeftUpLeg LeftLeg
      LeftLeg LeftFoot
      LeftFoot LeftToeBase
      RightUpLeg RightLeg
      RightLeg RightFoot
      RightFoot RightToeBase
   end

# File created by Blade
# Date/Time:  Tue Sep 23 19:18:47 2014
# Frame Rate: 120.000 fps
#------------------------------------------------------
:FULLY-SPECIFIED
:DEGREES
1122
root 0.163955 34.444324 0.569640 97.034441 5.495823 -33.031207
Spine -64.335574 -5.609767 32.984688
Head -12.131893 19.200658 34.991434
LeftShoulder -15.286107 35.311631 32.776891
LeftArm 77.522663 -48.868196 -96.223870
LeftForeArm 12.459027 -0.000000 117.784202
LeftHand -63.717021 0.000000 11.101912
LeftHandThumb1 -26.253704 0.000000 33.147579
RightShoulder -37.865581 -41.661117 1.280480
RightArm 34.739820 52.431456 75.398717
RightForeArm 87.035550 -0.000000 -2.996519
RightHand 8.160742 -0.000000 22.270048
RightHandThumb1 -24.326973 -0.000000 -32.862282
LeftUpLeg -102.375320 29.061124 -4.588623
LeftLeg 4.185199 -0.000000 -0.000000
LeftFoot -1.763783 6.745722 5.794250
LeftToeBase 1.400057 -0.000000 -0.000000
RightUpLeg 4.269574 4.897572 -27.831824
RightLeg 73.798254 -0.000000 -0.000000
RightFoot 36.967908 8.164753 3.956912
RightToeBase 33.221563 -0.000000 -0.000000
1123
root 0.182762 34.444811 0.574961 97.354650 5.340628 -33.069846
Spine -64.530824 -5.466859 32.979756
Head -12.095975 19.402324 34.997870
LeftShoulder -15.365179 35.331785 32.722469
LeftArm 77.608680 -49.149512 -96.418774
LeftForeArm 12.219078 0.000000 117.648714
LeftHand -63.657450 -0.000000 10.925067
LeftHandThumb1 -26.253704 0.000000 33.147579
RightShoulder -37.899736 -41.672587 1.275609
RightArm 34.841043 52.478543 75.204085
RightForeArm 86.857058 -0.000000 -3.093520
RightHand 8.126585 -0.000000 22.182401
RightHandThumb1 -24.326973 -0.000000 -32.862282
LeftUpLeg -102.506569 29.058312 -4.648481
LeftLeg 4.038876 -0.000000 -0.000000
LeftFoot -1.678539 6.984167 5.895650
LeftToeBase 1.309490 -0.000000 -0.000000
RightUpLeg 4.343787 4.886869 -27.930830
RightLeg 73.361303 -0.000000 -0.000000
RightFoot 36.760829 8.110704 3.816113
RightToeBase 33.266123 -0.000000 -0.000000
1124
root 0.196624 34.448794 0.581471 97.665186 5.216637 -33.180357
Spine -64.695662 -5.274183 32.985213
Head -12.026816 19.600784 35.040388
LeftShoulder -15.437737 35.321126 32.647262
LeftArm 77.637641 -49.468545 -96.457657
LeftForeArm 11.812445 -0.000000 117.488479
LeftHand -63.569616 -0.000000 10.708322
LeftHandThumb1 -26.253704 0.000000 33.147579
RightShoulder -37.872671 -41.624742 1.191177
RightArm 34.762466 52.571195 74.930574
RightForeArm 86.641524 -0.000000 -3.084785
RightHand 7.970407 0.000000 21.959776
RightHandThumb1 -24.326973 -0.000000 -32.862282
LeftUpLeg -102.647343 29.150390 -4.709084
LeftLeg 3.890828 -0.000000 -0.000000
LeftFoot -1.644849 7.166883 5.874282
LeftToeBase 1.364502 -0.000000 -0.000000
RightUpLeg 4.377763 4.972038 -27.984968
RightLeg 72.965347 -0.000000 -0.000000
RightFoot 36.436056 7.989517 3.802934
RightToeBase 33.334294 -0.000000 -0.000000
1125
root 0.214864 34.449527 0.590631 98.004119 5.065586 -33.204205
Spine -64.927998 -5.136317 32.992053
Head -11.975024 19.798420 35.059704
LeftShoulder -15.508215 35.287108 32.584898
LeftArm 77.591512 -49.767145 -96.413875
LeftForeArm 11.237633 -0.000000 117.372442
LeftHand -63.430247 -0.000000 10.892653
LeftHandThumb1 -26.253704 0.000000 33.147579
RightShoulder -37.776867 -41.538360 1.047989
RightArm 34.549764 52.537805 74.436927
RightForeArm 86.615602 -0.000000 -3.249834
RightHand 7.905876 0.000000 21.956811
RightHandThumb1 -24.326973 -0.000000 -32.862282
LeftUpLeg -102.830646 29.129297 -4.872070
LeftLeg 3.737155 -0.000000 -0.000000
LeftFoot -1.610332 7.270010 5.874538
LeftToeBase 1.365979 -0.000000 -0.000000
RightUpLeg 4.458026 4.954873 -28.078830
RightLeg 72.527249 -0.000000 -0.000000
RightFoot 36.162697 7.917929 3.737564
RightToeBase 33.430113 -0.000000 -0.000000
